<?xml version="1.0" encoding="utf-8"?>
<!-- Generator: Adobe Illustrator 18.0.0, SVG Export Plug-In . SVG Version: 6.00 Build 0)  -->
<!DOCTYPE svg PUBLIC "-//W3C//DTD SVG 1.1//EN" "http://www.w3.org/Graphics/SVG/1.1/DTD/svg11.dtd">
<svg version="1.1" id="Layer_1" xmlns="http://www.w3.org/2000/svg" xmlns:xlink="http://www.w3.org/1999/xlink" x="0px" y="0px"
	 viewBox="0 0 290 33" enable-background="new 0 0 290 33" xml:space="preserve">
<g>
	<path fill="#A6CE39" d="M4.8,2c1,0,1.9,0,2.9,0C13.8,2,19.9,2,26,2c5,0,8.5,3.3,8.8,8.3c0.1,1.2,0,2.4,0,3.8
		c-0.3-0.3-0.6-0.5-0.7-0.7c-0.8-0.8-1.7-1.2-2.8-1.2c-4.4,0-8.8,0-13.3,0c-2.2,0-4.1,1.9-4.5,4.5c-0.1,0.9-0.1,1.8-0.1,2.8
		c0,3.7,0,7.5,0,11.2c0,0.4,0,0.8,0,1.3c-2.3,0-4.2-0.8-5.8-2.3c-1.8-1.7-2.7-3.8-2.7-6.2c0-6.9,0-13.9,0-20.8
		C4.8,2.5,4.8,2.3,4.8,2z"/>
	<path fill="#A6CE39" d="M22.2,16.5c0,5.2,0,10.3,0,15.4c-1.4,0-2.8,0-4.2,0c0-0.3-0.1-0.7-0.1-1c0-4.2,0-8.3,0-12.5
		c0-1.4,0.5-1.9,2-1.9C20.7,16.5,21.4,16.5,22.2,16.5z"/>
	<path fill="#A6CE39" d="M31.2,31.9c-1.5,0-2.8,0-4.3,0c0-0.3-0.1-0.7-0.1-1c0-4.5,0-9,0-13.4c0-0.8,0.3-1.1,1.1-1.1
		c0.5,0,1,0,1.5,0c1.1,0,1.8,0.4,1.8,1.5C31.3,22.6,31.2,27.2,31.2,31.9z"/>
</g>
<g>
	<path fill="#A4CE39" d="M45.5,6.9c0.7-0.1,1.4-0.2,2-0.2c0.7,0,1.3,0.1,2,0.2l4.3,11.3l4.4-11.3c0.5-0.1,1.1-0.2,1.8-0.2
		c0.7,0,1.3,0.1,1.9,0.2l0.9,19.8c-0.7,0.1-1.3,0.2-1.9,0.2s-1.2-0.1-1.7-0.2l-0.5-13.4l-3.8,9.3c-0.2,0-0.5,0.1-0.8,0.1
		c-0.3,0-0.5,0-0.8,0c-0.2,0-0.5,0-0.7,0c-0.2,0-0.5-0.1-0.7-0.1l-3.5-9.5l-0.4,13.6c-0.6,0.1-1.1,0.2-1.6,0.2
		c-0.6,0-1.1-0.1-1.7-0.2L45.5,6.9z"/>
	<path fill="#A4CE39" d="M66.3,6.9h10.6C77,7.5,77.1,8,77.1,8.6c0,0.6-0.1,1.2-0.2,1.7h-6.8v4.3h5.4c0.1,0.6,0.2,1.2,0.2,1.7
		c0,0.6-0.1,1.2-0.2,1.7h-5.4v5.2h7c0.1,0.6,0.2,1.1,0.2,1.7c0,0.6-0.1,1.2-0.2,1.7H66.3V6.9z"/>
	<path fill="#A4CE39" d="M90.4,16.5c0.6-0.1,1.3-0.2,1.9-0.2c0.6,0,1.2,0.1,1.9,0.2v9.7c-0.9,0.3-1.8,0.6-2.8,0.7s-1.8,0.2-2.6,0.2
		c-1.5,0-2.9-0.3-4-0.8c-1.1-0.5-2.1-1.2-2.9-2.1c-0.8-0.9-1.3-2-1.7-3.2c-0.4-1.2-0.6-2.6-0.6-4.1c0-1.5,0.2-2.8,0.6-4.1
		c0.4-1.3,1-2.3,1.7-3.3s1.7-1.6,2.8-2.1c1.1-0.5,2.4-0.8,3.8-0.8c0.8,0,1.6,0.1,2.3,0.2c0.7,0.1,1.5,0.3,2.3,0.7
		c0,0.6-0.1,1.1-0.3,1.6c-0.2,0.5-0.4,1.1-0.6,1.6c-0.6-0.2-1.1-0.4-1.6-0.5c-0.5-0.1-1-0.1-1.7-0.1c-1.7,0-3,0.6-3.8,1.7
		s-1.3,2.8-1.3,5.1c0,2.3,0.4,3.9,1.3,5c0.9,1.1,2.2,1.7,3.9,1.7c0.3,0,0.6,0,0.8-0.1c0.2,0,0.4-0.1,0.6-0.1V16.5z"/>
	<path fill="#A4CE39" d="M101.9,6.9c0.4-0.1,0.7-0.1,1-0.1c0.3,0,0.7,0,1.1,0c0.3,0,0.7,0,1,0c0.3,0,0.7,0.1,1.1,0.1l5.9,19.8
		c-0.7,0.1-1.4,0.2-2.1,0.2c-0.7,0-1.3-0.1-1.9-0.2l-1-4h-6.2l-1.1,4c-0.6,0.1-1.2,0.2-1.8,0.2c-0.6,0-1.3-0.1-1.9-0.2L101.9,6.9z
		 M106.1,19.4l-2.2-8.3l-2.3,8.3H106.1z"/>
	<path fill="#5B5C5C" d="M119.9,6.9c0.7-0.1,1.5-0.2,2.3-0.2c0.8-0.1,1.7-0.1,2.7-0.1c3.3,0,5.8,0.9,7.5,2.6
		c1.7,1.7,2.6,4.3,2.6,7.8c0,3.5-0.9,6-2.6,7.6c-1.7,1.6-4.3,2.4-7.7,2.4c-0.9,0-1.7,0-2.5-0.1c-0.7-0.1-1.5-0.1-2.2-0.2V6.9z
		 M123.8,23.5c0.2,0,0.4,0,0.6,0.1c0.2,0,0.5,0,0.9,0c0.8,0,1.5-0.1,2.2-0.3c0.7-0.2,1.3-0.5,1.8-1.1c0.5-0.5,0.9-1.2,1.2-2.1
		s0.4-2,0.4-3.3c0-1.3-0.1-2.4-0.4-3.3s-0.7-1.6-1.2-2.1c-0.5-0.5-1.1-0.9-1.7-1.1c-0.7-0.2-1.3-0.3-2.1-0.3c-0.2,0-0.5,0-0.8,0
		c-0.3,0-0.6,0-0.8,0.1V23.5z"/>
	<path fill="#5B5C5C" d="M138.1,6.9c0.6-0.1,1.3-0.2,1.9-0.2c0.6,0,1.3,0.1,1.9,0.2v19.8c-0.7,0.1-1.3,0.2-1.9,0.2
		c-0.6,0-1.3-0.1-1.9-0.2V6.9z"/>
	<path fill="#5B5C5C" d="M149,17.6c-0.6-0.2-1.1-0.5-1.6-0.8c-0.5-0.3-0.9-0.6-1.2-1c-0.3-0.4-0.6-0.9-0.8-1.4s-0.3-1.2-0.3-2
		c0-0.9,0.2-1.8,0.5-2.5c0.3-0.7,0.7-1.3,1.3-1.8c0.6-0.5,1.2-0.9,2-1.1s1.7-0.4,2.6-0.4c0.9,0,1.7,0.1,2.5,0.2
		c0.8,0.2,1.6,0.4,2.4,0.7c-0.1,1.1-0.4,2.1-0.8,3.1c-0.3-0.1-0.5-0.2-0.8-0.3c-0.3-0.1-0.6-0.2-0.9-0.3c-0.3-0.1-0.6-0.1-1-0.2
		c-0.4,0-0.8-0.1-1.3-0.1c-0.3,0-0.6,0-0.9,0.1s-0.6,0.2-0.8,0.3c-0.2,0.1-0.4,0.4-0.6,0.6c-0.2,0.3-0.2,0.7-0.2,1.1
		c0,0.4,0.1,0.7,0.2,0.9c0.1,0.2,0.3,0.5,0.5,0.6c0.2,0.2,0.4,0.3,0.7,0.4c0.3,0.1,0.5,0.2,0.8,0.3l1.6,0.6c0.7,0.3,1.3,0.6,1.8,0.9
		c0.5,0.3,1,0.7,1.4,1.1c0.4,0.4,0.7,1,0.9,1.6c0.2,0.6,0.3,1.4,0.3,2.3c0,0.9-0.2,1.8-0.5,2.6s-0.8,1.4-1.4,2
		c-0.6,0.5-1.4,1-2.3,1.3s-1.9,0.5-3.1,0.5c-0.6,0-1.1,0-1.5-0.1c-0.5,0-0.9-0.1-1.3-0.2c-0.4-0.1-0.8-0.2-1.2-0.3
		c-0.4-0.1-0.8-0.3-1.3-0.5c0.1-0.5,0.1-1.1,0.3-1.7c0.1-0.6,0.3-1.2,0.5-1.7c0.7,0.3,1.4,0.5,2.1,0.7c0.6,0.2,1.3,0.2,2.1,0.2
		c1.1,0,2-0.2,2.6-0.6c0.6-0.4,0.9-1.1,0.9-2c0-0.4-0.1-0.8-0.2-1.1c-0.1-0.3-0.3-0.5-0.6-0.7s-0.5-0.4-0.8-0.5
		c-0.3-0.1-0.6-0.3-0.9-0.4L149,17.6z"/>
	<path fill="#5B5C5C" d="M163.6,10.4h-4.7c-0.1-0.6-0.2-1.1-0.2-1.7c0-0.6,0.1-1.1,0.2-1.7h13.2c0.1,0.6,0.2,1.1,0.2,1.7
		c0,0.6-0.1,1.2-0.2,1.7h-4.7v16.4c-0.3,0-0.6,0.1-0.9,0.1c-0.3,0-0.6,0-0.9,0c-0.3,0-0.6,0-1,0c-0.3,0-0.7-0.1-1-0.1V10.4z"/>
	<path fill="#5B5C5C" d="M174.9,6.9c0.8-0.1,1.5-0.2,2.2-0.2c0.7-0.1,1.4-0.1,2.2-0.1c1,0,1.9,0.1,2.8,0.3s1.8,0.5,2.5,1
		s1.4,1.1,1.8,1.9c0.5,0.8,0.7,1.8,0.7,3c0,0.7-0.1,1.4-0.3,1.9c-0.2,0.6-0.4,1.1-0.7,1.5c-0.3,0.4-0.6,0.8-0.9,1.1
		c-0.3,0.3-0.6,0.5-0.9,0.7l-0.4,0.3l4.6,8.4c-0.3,0-0.7,0.1-1.1,0.1c-0.4,0-0.8,0.1-1.2,0.1c-0.7,0-1.3-0.1-2-0.2l-4.9-9.2l0.6-0.3
		c0.2-0.1,0.5-0.3,0.9-0.5c0.3-0.2,0.7-0.5,1-0.8c0.3-0.3,0.6-0.7,0.8-1.1c0.2-0.4,0.3-0.9,0.3-1.5c0-1.2-0.3-2-0.9-2.5
		c-0.6-0.5-1.4-0.8-2.4-0.8c-0.4,0-0.7,0-1,0.1v16.7c-0.3,0-0.6,0.1-0.9,0.1c-0.3,0-0.6,0-0.9,0c-0.3,0-0.6,0-0.9,0
		c-0.3,0-0.7-0.1-1-0.1V6.9z"/>
	<path fill="#5B5C5C" d="M190.6,6.9c0.6-0.1,1.3-0.2,1.9-0.2c0.6,0,1.3,0.1,1.9,0.2v19.8c-0.7,0.1-1.3,0.2-1.9,0.2
		c-0.6,0-1.3-0.1-1.9-0.2V6.9z"/>
	<path fill="#5B5C5C" d="M198.1,6.9c0.6-0.1,1.2-0.2,1.9-0.2c0.7-0.1,1.6-0.1,2.7-0.1c1,0,1.9,0.1,2.7,0.2s1.6,0.4,2.2,0.8
		c0.6,0.4,1.1,0.9,1.5,1.6c0.4,0.7,0.5,1.5,0.5,2.5c0,0.6-0.1,1.1-0.2,1.6s-0.4,0.9-0.7,1.3c-0.3,0.4-0.6,0.7-0.9,0.9
		c-0.3,0.2-0.7,0.4-1.1,0.5c0.4,0.1,0.8,0.2,1.3,0.4c0.5,0.2,0.9,0.5,1.4,0.9c0.4,0.4,0.8,0.9,1,1.5c0.3,0.6,0.4,1.4,0.4,2.3
		c0,1.2-0.2,2.2-0.6,2.9c-0.4,0.8-1,1.4-1.7,1.8c-0.7,0.4-1.6,0.7-2.5,0.9c-0.9,0.2-1.9,0.2-3,0.2c-0.8,0-1.6,0-2.4-0.1
		c-0.8,0-1.7-0.1-2.7-0.3V6.9z M203.1,14.9c0.4,0,0.8,0,1.2-0.1s0.7-0.2,1-0.4c0.3-0.2,0.5-0.5,0.7-0.9c0.2-0.4,0.2-0.8,0.2-1.4
		c0-0.5-0.1-1-0.3-1.3c-0.2-0.3-0.4-0.6-0.7-0.8c-0.3-0.2-0.6-0.3-1-0.4s-0.7-0.1-1.1-0.1c-0.5,0-0.9,0-1.2,0.1v5.3H203.1z
		 M201.9,23.7c0.2,0,0.5,0.1,0.8,0.1s0.6,0,0.9,0c0.4,0,0.7,0,1.1-0.1c0.4-0.1,0.8-0.2,1.1-0.4c0.3-0.2,0.6-0.5,0.9-0.9
		s0.3-0.9,0.3-1.5c0-0.6-0.1-1-0.3-1.4c-0.2-0.4-0.4-0.7-0.7-0.9c-0.3-0.2-0.7-0.4-1.1-0.5c-0.4-0.1-0.9-0.1-1.5-0.1h-1.6V23.7z"/>
	<path fill="#5B5C5C" d="M213.8,6.9c0.3-0.1,0.7-0.1,1-0.1c0.3,0,0.6,0,1,0c0.3,0,0.6,0,0.9,0c0.3,0,0.6,0.1,1,0.1v10.3
		c0,1.1,0,2.1,0.1,2.9s0.2,1.5,0.5,2c0.2,0.5,0.6,0.9,1,1.2c0.4,0.2,1,0.4,1.7,0.4s1.2-0.1,1.6-0.4c0.4-0.2,0.7-0.6,1-1.2
		c0.2-0.5,0.4-1.2,0.5-2s0.1-1.8,0.1-2.9V6.9c0.3-0.1,0.7-0.1,1-0.1c0.3,0,0.6,0,0.9,0c0.3,0,0.6,0,1,0c0.3,0,0.6,0.1,1,0.1v11.1
		c0,1.3-0.1,2.6-0.3,3.7c-0.2,1.1-0.6,2.1-1.1,2.8c-0.5,0.8-1.3,1.4-2.2,1.8c-0.9,0.4-2.1,0.6-3.4,0.6c-1.4,0-2.5-0.2-3.4-0.6
		c-0.9-0.4-1.6-1-2.2-1.8c-0.5-0.8-0.9-1.7-1.1-2.8c-0.2-1.1-0.3-2.3-0.3-3.7V6.9z"/>
	<path fill="#5B5C5C" d="M235,10.4h-4.7c-0.1-0.6-0.2-1.1-0.2-1.7c0-0.6,0.1-1.1,0.2-1.7h13.2c0.1,0.6,0.2,1.1,0.2,1.7
		c0,0.6-0.1,1.2-0.2,1.7h-4.7v16.4c-0.3,0-0.6,0.1-0.9,0.1c-0.3,0-0.6,0-0.9,0c-0.3,0-0.6,0-1,0c-0.3,0-0.7-0.1-1-0.1V10.4z"/>
	<path fill="#5B5C5C" d="M246.1,6.9c0.6-0.1,1.3-0.2,1.9-0.2c0.6,0,1.3,0.1,1.9,0.2v19.8c-0.7,0.1-1.3,0.2-1.9,0.2
		c-0.6,0-1.3-0.1-1.9-0.2V6.9z"/>
	<path fill="#5B5C5C" d="M261.3,27.1c-1.4,0-2.6-0.3-3.6-0.8c-1-0.5-1.9-1.2-2.5-2.1c-0.7-0.9-1.2-2-1.5-3.2s-0.5-2.6-0.5-4.1
		c0-1.5,0.2-2.8,0.5-4.1c0.3-1.3,0.8-2.3,1.5-3.3s1.5-1.6,2.5-2.1c1-0.5,2.2-0.8,3.6-0.8c1.4,0,2.6,0.3,3.6,0.8
		c1,0.5,1.9,1.2,2.5,2.1s1.2,2,1.5,3.3c0.3,1.3,0.5,2.6,0.5,4.1c0,1.5-0.2,2.8-0.5,4.1s-0.8,2.3-1.5,3.2c-0.7,0.9-1.5,1.6-2.5,2.1
		S262.7,27.1,261.3,27.1z M261.3,23.7c2.7,0,4-2.3,4-6.8c0-2.3-0.3-4-1-5.1c-0.7-1.1-1.7-1.7-3-1.7c-2.7,0-4.1,2.3-4.1,6.8
		C257.2,21.4,258.5,23.7,261.3,23.7z"/>
	<path fill="#5B5C5C" d="M272.5,6.9c0.5-0.1,1.1-0.2,1.5-0.2c0.5,0,1.1,0.1,1.6,0.2l7.2,12.6V6.9c0.6-0.1,1.2-0.2,1.8-0.2
		c0.5,0,1.1,0.1,1.6,0.2v19.8c-0.6,0.1-1.1,0.2-1.5,0.2c-0.5,0-1-0.1-1.6-0.2l-7.3-12.6v12.6c-0.6,0.1-1.1,0.2-1.7,0.2
		s-1.1-0.1-1.7-0.2V6.9z"/>
</g>
<g>
</g>
<g>
</g>
<g>
</g>
<g>
</g>
<g>
</g>
<g>
</g>
</svg>
